# xmcd
#
# Track frame offsets: 
#        150
#        10371
#        22838
#        35067
#        46869
#        61176
#        72831
#        84897
#        119846
#        136082
#        144691
#        154635
#        187974
#        210054
#        223056
#        236425
#        249231
#        260008
#
# Disc length: 3628 seconds
#
# Revision: 0
# Processed by: cddbd v1.5.2PL0 Copyright (c) Steve Scherf et al.
# Submitted via: ExactAudioCopyFreeDBPlugin 1.0
#
DISCID=ef0e2a12
DTITLE=Various Artist - Simply Rhythm and Blues CD3
DYEAR=2013
DGENRE=Blues
TTITLE0=Canned Heat - Rollin' and tumblin' [Part 1] (Demo)
TTITLE1=Nina Simone - Backlash blues (Live)
TTITLE2=Bobby 'Blue' Bland - I pity the fool
TTITLE3=The Yarbirds - Got to hurry
TTITLE4=Bill Doggett - Honky Tonk [Part 1]
TTITLE5=Lowell Fulson - I love my baby
TTITLE6=T-Bone Walker - Sail on boogie
TTITLE7=The Animals - Bo Diddley (Live)
TTITLE8=The Steampacket, Rod Stewart - Can I get a witness
TTITLE9=Allen Toussaint - Java
TTITLE10=Arthur "Big Boy" Crudup - I love her just the same
TTITLE11=Mike Bloomfield - Wee wee hours
TTITLE12=John's Bluesbreakers Mayall - All your love (Live)
TTITLE13=Professor Longhair and His Shaffing Hungarians - Mardi Gras in 
TTITLE13=New Orleans
TTITLE14=Johnny Winter - Five after for A.M.
TTITLE15=Chris Kenner - Something you got
TTITLE16=The Downliners - I got mine
TTITLE17=Earl Bostic - Flamingo
EXTD=
EXTT0=
EXTT1=
EXTT2=
EXTT3=
EXTT4=
EXTT5=
EXTT6=
EXTT7=
EXTT8=
EXTT9=
EXTT10=
EXTT11=
EXTT12=
EXTT13=
EXTT14=
EXTT15=
EXTT16=
EXTT17=
PLAYORDER=
